<?xml version="1.0" encoding="utf-8" standalone="no"?>
<!DOCTYPE svg PUBLIC "-//W3C//DTD SVG 1.1//EN"
  "http://www.w3.org/Graphics/SVG/1.1/DTD/svg11.dtd">
<!-- Created with matplotlib (https://matplotlib.org/) -->
<svg height="864pt" version="1.1" viewBox="0 0 1152 864" width="1152pt" xmlns="http://www.w3.org/2000/svg" xmlns:xlink="http://www.w3.org/1999/xlink">
 <defs>
  <style type="text/css">
*{stroke-linecap:butt;stroke-linejoin:round;}
  </style>
 </defs>
 <g id="figure_1">
  <g id="patch_1">
   <path d="M 0 864 
L 1152 864 
L 1152 0 
L 0 0 
z
" style="fill:#ffffff;"/>
  </g>
  <g id="axes_1">
   <g id="matplotlib.axis_1"/>
   <g id="matplotlib.axis_2"/>
   <g id="patch_2">
    <path d="M 851.328 429.84 
C 851.328 408.795755 848.782124 387.828578 843.745906 367.39584 
C 838.709688 346.963102 831.220017 327.214462 821.440268 308.580708 
L 590.4 429.84 
L 851.328 429.84 
z
" style="fill:#e24a33;"/>
   </g>
   <g id="patch_3">
    <path d="M 821.440268 308.580708 
C 805.105647 277.45769 782.649398 249.95378 755.422699 227.72387 
C 728.195999 205.49396 696.756097 188.993028 662.99471 179.213926 
C 629.233324 169.434823 593.841446 166.577698 558.948583 170.814462 
C 524.05572 175.051225 490.376022 186.295164 459.935975 203.869738 
L 590.4 429.84 
L 821.440268 308.580708 
z
" style="fill:#348abd;"/>
   </g>
   <g id="patch_4">
    <path d="M 459.935975 203.869738 
C 407.863313 233.933911 367.749866 281.092712 346.428071 337.313684 
C 325.106276 393.534656 323.859567 455.433662 342.900293 512.467576 
C 361.941019 569.501491 400.123053 618.237243 450.942929 650.373776 
C 501.762805 682.51031 562.161499 696.113215 621.851429 688.865537 
L 590.4 429.84 
L 459.935975 203.869738 
z
" style="fill:#988ed5;"/>
   </g>
   <g id="patch_5">
    <path d="M 641.382173 706.168261 
C 704.655553 698.485473 762.972006 667.878628 805.23818 620.169966 
C 847.504354 572.461305 870.858753 510.880791 870.858744 447.142688 
L 609.930744 447.142724 
L 641.382173 706.168261 
z
" style="fill:#777777;"/>
   </g>
  </g>
 </g>
</svg>
